<svg xmlns="http://www.w3.org/2000/svg" width="24" height="24" fill="none" viewBox="0 0 24 24">
  <path fill="#33363F" d="m2 12-.78-.625-.5.625.5.625L2 12Zm9 1a1 1 0 1 0 0-2v2ZM6 7l-.78-.625-4 5L2 12l.78.625 4-5L6 7Zm-4 5-.78.625 4 5L6 17l.78-.625-4-5L2 12Zm0 0v1h9v-2H2v1Z"/>
  <path stroke="#33363F" stroke-width="2" d="M10 8.132v-.743c0-1.619 0-2.428.474-2.987.474-.56 1.272-.693 2.868-.96l1.672-.278c3.243-.54 4.864-.81 5.925.088C22 4.151 22 5.795 22 9.082v5.835c0 3.288 0 4.932-1.06 5.83-1.062.9-2.683.63-5.926.089l-1.672-.279c-1.596-.266-2.394-.399-2.868-.958C10 19.039 10 18.229 10 16.61v-.545"/>
</svg>
