<svg xmlns="http://www.w3.org/2000/svg" width="24" height="24" fill="none" viewBox="0 0 24 24">
  <path fill="#33363F" d="M12.632 2V1v1Zm.83.07.369-.93-.368.93Zm.521.472.89-.458-.89.458Zm.153.82.995-.1-.995.1Zm.295 1.456-.795.607.795-.607Zm.928.385.134.991-.134-.99Zm1.239-.822-.633-.774.633.774Zm.688-.472-.304-.953.304.953Zm.701.035.398-.917-.398.917Zm.638.538-.707.708.707-.708Zm.893.893.707-.707-.707.707Zm.538.638.917-.398-.917.398Zm.035.7.952.305-.952-.304Zm-.473.688.774.634-.774-.634Zm-.821 1.239-.991-.135v.001l.99.134Zm.385.928-.607.795.607-.795Zm1.457.295.1-.995-.1.995Zm.82.154.459-.889-.459.889Zm.47.52.93-.368-.93.368Zm.071.831h1-1Zm0 1.264h1-1Zm-.07.83.93.369-.93-.368Zm-.472.521.458.89-.458-.89Zm-.82.153.1.995-.1-.995Zm-1.455.295-.607-.796.607.796Zm-.385.928-.991.134.99-.134Zm.821 1.239.774-.634-.774.634Zm.472.686.952-.304-.952.304Zm-.035.702.917.398-.917-.398Zm-2.069 2.069.398.917-.398-.917Zm-.7.035-.305.953.304-.953Zm-.69-.472.634-.774-.633.774Zm-1.239-.822.133-.991-.133.99Zm-.927.385-.795-.607.795.607Zm-.295 1.457-.995-.1.995.1Zm-.153.82.89.458-.89-.458Zm-.52.472.368.93-.368-.93Zm-2.095.07v1-1Zm-.83-.07-.369.93.368-.93Zm-.521-.471-.889.459.889-.459Zm-.154-.82-.995.1.995-.1Zm-.295-1.457.796-.607-.796.607Zm-.928-.385-.134-.991.134.99Zm-1.239.821.634.774-.634-.774Zm-.687.473.304.953-.304-.953Zm-.701-.035-.398.917.398-.917Zm-1.53-1.431-.708.707.707-.707Zm-.539-.638-.917.398.917-.398Zm-.035-.7-.952-.305.952.304Zm.472-.69-.774-.633.774.634Zm.822-1.238.991.134-.99-.134Zm-.385-.928.607-.795-.607.795Zm-1.457-.295-.099.995.1-.995Zm-.819-.153-.458.89.458-.89Zm-.472-.52-.93.368.93-.368ZM2 12.632H1h1Zm0-1.264H1h1Zm.07-.83-.93-.369.93.368Zm.471-.521-.459-.89v.001l.459.889Zm.82-.154-.1-.995.1.995Zm1.457-.295.607.795-.607-.795Zm.385-.927.991-.133-.99.133ZM4.381 7.4l-.774.634.774-.634Zm-.472-.687-.952.304.952-.304Zm.035-.701-.917-.398.917.398Zm2.069-2.069-.398-.917.398.917Zm.7-.035.305-.952-.304.952Zm.69.472-.634.774.633-.774Zm1.238.821-.134.991.134-.99Zm.927-.385.795.607-.795-.607Zm.295-1.456.995.1-.995-.1Zm.154-.82-.889-.459.889.459Zm.52-.47-.368-.93.368.93ZM12.632 2v1c.23 0 .355 0 .445.007.08.005.065.012.018-.007l.368-.93.368-.93a2.023 2.023 0 0 0-.62-.129C13.04 1 12.837 1 12.631 1v1Zm.83.07-.367.93.888-.458.89-.458a2 2 0 0 0-1.042-.943l-.368.93Zm.521.472L13.094 3c-.022-.044-.017-.06-.004.018.015.09.028.213.05.443l.996-.1.995-.099a8.595 8.595 0 0 0-.069-.575 2.02 2.02 0 0 0-.19-.603l-.889.458Zm.153.82-.995.099c.039.393.074.748.124 1.03.05.271.135.626.37.934l.796-.607.795-.606c.063.083.043.12.008-.076a12.96 12.96 0 0 1-.103-.874l-.995.1Zm.295 1.456-.795.607a2 2 0 0 0 1.857.77l-.134-.992-.133-.991-.795.606Zm.928.385.134.991c.385-.052.697-.242.923-.4.234-.163.509-.389.815-.64l-.633-.773-.633-.774c-.333.272-.537.438-.692.546-.163.114-.151.073-.047.06l.133.99Zm1.239-.822.633.774a7.53 7.53 0 0 1 .348-.277c.066-.046.058-.031.011-.016l-.304-.953-.304-.952c-.408.13-.748.43-1.018.65l.634.774Zm.688-.472.304.953.397-.918.398-.917a2 2 0 0 0-1.403-.07l.304.952Zm.701.035-.397.918c-.046-.02-.052-.036.008.017.068.06.157.147.32.31l.707-.707.707-.707c-.145-.145-.288-.288-.418-.402a2.024 2.024 0 0 0-.53-.346l-.397.917Zm.638.538-.707.708.893.892.707-.707.707-.707-.893-.893-.707.707Zm.893.893-.707.707c.163.163.25.252.31.32.053.06.037.054.017.008l.918-.397.917-.398a2.02 2.02 0 0 0-.346-.529 9.37 9.37 0 0 0-.402-.418l-.707.707Zm.538.638-.918.397.953.304.953.304a2 2 0 0 0-.07-1.403l-.918.398Zm.035.7-.953-.304c.016-.048.031-.057-.016.01-.052.073-.131.17-.278.349l.774.633.774.634c.13-.158.258-.315.358-.455.106-.148.22-.332.293-.562l-.952-.304Zm-.473.688-.774-.633c-.25.306-.476.581-.64.816-.157.227-.346.538-.398.921l.99.135.992.134c-.014.103-.054.114.06-.049.107-.155.272-.358.544-.69l-.774-.634Zm-.821 1.239-.991-.134a2 2 0 0 0 .77 1.857l.606-.795.606-.795-.991-.133Zm.385.928-.607.796c.308.235.663.32.935.37.28.05.635.085 1.03.124l.099-.995.1-.995a13.41 13.41 0 0 1-.875-.103c-.196-.035-.159-.055-.076.008l-.606.795Zm1.457.295-.1.995c.23.023.353.036.442.051.079.014.063.019.02-.004l.458-.888.459-.889c-.38-.196-.834-.225-1.18-.26l-.1.995Zm.82.154-.459.888.93-.368.93-.368a2 2 0 0 0-.942-1.04l-.459.888Zm.47.52-.93.368c-.017-.046-.011-.062-.006.018.006.09.007.214.007.445h2c0-.205 0-.407-.011-.58a2.023 2.023 0 0 0-.13-.619l-.93.368Zm.071.831h-1v1.264h2v-1.264h-1Zm0 1.264h-1c0 .23 0 .355-.007.445-.005.08-.012.065.007.018l.93.368.93.367a2.02 2.02 0 0 0 .129-.619c.011-.172.011-.374.011-.58h-1Zm-.07.83-.93-.367.458.888.458.89a2 2 0 0 0 .944-1.042l-.93-.368Zm-.472.521L21 13.094c.044-.022.06-.017-.018-.004a7.671 7.671 0 0 1-.443.05l.1.996.099.995c.204-.02.405-.04.575-.069.18-.03.39-.08.603-.19l-.458-.889Zm-.82.153-.099-.995c-.394.039-.748.074-1.029.124-.272.05-.626.136-.934.37l.607.796.606.795c-.083.063-.12.043.076.008.185-.034.446-.06.873-.103l-.1-.995Zm-1.455.295-.607-.796a2 2 0 0 0-.77 1.858l.992-.134.99-.133-.605-.795Zm-.385.928-.991.134c.052.384.241.695.399.922.163.235.389.51.64.816l.773-.633.774-.634a12.976 12.976 0 0 1-.545-.69c-.113-.163-.073-.151-.06-.048l-.99.133Zm.821 1.239-.774.633c.146.179.225.275.277.349.047.065.032.057.017.01l.952-.306.952-.305a2.022 2.022 0 0 0-.292-.56c-.1-.14-.229-.297-.358-.455l-.774.634Zm.472.686-.953.305.918.397.917.398a2 2 0 0 0 .07-1.404l-.952.304Zm-.035.702-.918-.397c.02-.046.036-.052-.017.008a7.61 7.61 0 0 1-.31.32l.707.707.707.707c.145-.145.288-.288.402-.418.12-.137.25-.309.346-.529l-.917-.398Zm-.538.638-.707-.707-.893.892.707.708.707.707.893-.893-.707-.707Zm-.893.893-.707-.707a7.7 7.7 0 0 1-.32.31c-.06.053-.054.037-.008.017l.397.918.398.917c.22-.095.391-.226.53-.346.13-.114.272-.257.417-.402l-.707-.707Zm-.638.538-.397-.918-.304.953-.304.953c.461.147.96.121 1.403-.07l-.398-.918Zm-.7.035.303-.953c.047.015.055.03-.01-.017a7.505 7.505 0 0 1-.35-.276l-.632.774-.633.774c.269.22.61.52 1.017.65l.304-.952Zm-.69-.472.634-.774c-.306-.25-.582-.477-.816-.64-.227-.157-.539-.348-.924-.4l-.133.992-.133.991c-.104-.014-.115-.054.048.06.155.107.359.273.691.545l.634-.774Zm-1.239-.822.133-.991a2 2 0 0 0-1.855.769l.795.607.795.606.132-.991Zm-.927.385-.795-.607c-.236.308-.322.663-.37.935-.051.281-.086.636-.125 1.03l.995.099.995.099c.043-.427.07-.689.103-.874.035-.195.055-.159-.008-.076l-.795-.606Zm-.295 1.457-.995-.1c-.023.23-.036.354-.051.444-.014.079-.018.062.005.018l.888.458.89.458c.11-.214.16-.424.19-.604.028-.17.047-.371.068-.575l-.995-.1Zm-.153.82L13.095 21l.368.93.368.93a2 2 0 0 0 1.041-.944l-.889-.458Zm-.52.472-.368-.93c.046-.019.063-.012-.018-.007-.09.006-.215.007-.446.007v2c.205 0 .407 0 .58-.011.182-.012.396-.04.62-.13l-.368-.93Zm-.832.07v-1h-1.263v2h1.263v-1Zm-1.263 0v-1c-.23 0-.355 0-.445-.007-.08-.005-.064-.011-.018.007l-.368.93-.368.93c.224.088.437.117.62.129.172.011.374.011.58.011v-1Zm-.83-.07.367-.93-.888.459-.889.459a2 2 0 0 0 1.041.942l.368-.93Zm-.521-.471.888-.459c.023.044.018.06.004-.02a7.504 7.504 0 0 1-.05-.44l-.996.099-.995.1c.035.345.064.798.26 1.179l.889-.459Zm-.154-.82.995-.1c-.04-.394-.074-.748-.124-1.03-.05-.27-.135-.626-.37-.934l-.796.607-.795.606c-.063-.083-.043-.12-.008.076.034.185.06.447.103.874l.995-.1Zm-.295-1.457.795-.607a2 2 0 0 0-1.857-.77l.134.992.133.99v.001l.795-.606Zm-.928-.385-.135-.991c-.383.052-.694.241-.921.399-.235.163-.51.389-.816.64l.633.773.634.774c.332-.272.535-.437.69-.545.163-.113.152-.073.049-.06l-.134-.99Zm-1.239.821-.633-.774c-.18.147-.276.226-.35.278-.066.047-.057.032-.009.016l.305.953.304.952c.23-.073.414-.187.562-.293.14-.1.297-.229.455-.358l-.634-.774Zm-.687.473-.304-.953-.397.918-.398.917a2 2 0 0 0 1.403.07l-.304-.952Zm-.701-.035.397-.918c.046.02.052.036-.008-.017a7.676 7.676 0 0 1-.32-.31l-.707.707-.707.707c.145.145.288.288.418.402.138.12.309.25.53.346l.397-.917Zm-.638-.538.707-.707-.892-.893-.708.707-.707.707.893.893.707-.707Zm-.893-.893.708-.707a7.645 7.645 0 0 1-.31-.32c-.054-.06-.038-.054-.018-.008l-.918.397-.917.398c.095.22.226.391.346.53.114.13.257.272.402.417l.707-.707Zm-.538-.638.918-.397-.953-.304-.953-.304a2 2 0 0 0 .07 1.403l.918-.398Zm-.035-.7.953.303c-.015.047-.03.055.016-.01.052-.074.13-.17.277-.35l-.774-.632-.774-.633c-.22.269-.52.61-.65 1.017l.952.304Zm.472-.69.774.634c.25-.306.476-.581.64-.815.157-.226.347-.538.4-.923l-.992-.134-.99-.133c.013-.104.054-.116-.06.047a13.08 13.08 0 0 1-.546.691l.774.634Zm.822-1.238.991.134a2 2 0 0 0-.769-1.857l-.607.795-.606.795.991.133Zm-.385-.928.607-.795c-.308-.236-.663-.322-.935-.37-.281-.051-.636-.086-1.03-.125l-.099.995-.099.995c.427.042.688.07.874.103.195.035.159.055.076-.008l.606-.795Zm-1.457-.295.1-.995a7.67 7.67 0 0 1-.443-.051c-.079-.013-.062-.018-.018.005l-.458.888-.458.89c.213.11.423.159.603.19.17.028.371.047.575.068l.1-.995Zm-.819-.153L3 13.095l-.93.368-.93.368a2 2 0 0 0 .944 1.041l.458-.889Zm-.472-.52.93-.368c.019.046.012.062.007-.018A7.662 7.662 0 0 1 3 12.632H1c0 .205 0 .407.011.58.012.182.041.395.13.619l.93-.368ZM2 12.632h1v-1.264H1v1.264h1Zm0-1.264h1c0-.23 0-.355.007-.445.005-.08.012-.064-.007-.018l-.93-.368-.93-.368a2.022 2.022 0 0 0-.129.62C1 10.96 1 11.163 1 11.369h1Zm.07-.83.93.367-.459-.888-.459-.889a2 2 0 0 0-.942 1.041l.93.368Zm.471-.521.459.888c-.044.023-.06.018.02.004a7.5 7.5 0 0 1 .44-.05l-.099-.996-.1-.995c-.345.035-.798.064-1.179.26l.459.889Zm.82-.154.1.995c.394-.04.748-.074 1.03-.124.27-.05.626-.135.934-.37l-.607-.796-.606-.795c.083-.063.12-.043-.076-.008-.185.034-.447.06-.874.103l.1.995Zm1.457-.295.607.795a2 2 0 0 0 .77-1.855l-.992.133-.991.133.606.794Zm.385-.927.991-.134c-.052-.384-.242-.696-.4-.923-.162-.234-.389-.51-.64-.816l-.773.633-.774.634c.272.332.438.536.546.691.113.163.073.152.06.048l.99-.133ZM4.381 7.4l.774-.633a7.64 7.64 0 0 1-.277-.349c-.046-.065-.031-.057-.016-.01l-.953.305-.952.304c.073.229.186.412.292.561.1.14.228.297.358.456L4.38 7.4Zm-.472-.687.953-.304-.918-.397-.917-.398a2 2 0 0 0-.07 1.403l.952-.304Zm.035-.701.918.397c-.02.046-.036.052.017-.008a7.64 7.64 0 0 1 .31-.32l-.707-.707-.707-.707c-.145.145-.288.288-.402.418-.12.138-.25.309-.346.53l.917.397Zm.538-.638.708.707.892-.892-.707-.708-.707-.707-.893.893.707.707Zm.893-.893.707.708c.163-.164.252-.251.32-.31.06-.054.054-.038.008-.018l-.397-.918-.398-.917c-.22.095-.391.226-.53.346-.13.114-.272.257-.417.402l.707.707Zm.638-.538.397.918.304-.953.304-.953a2 2 0 0 0-1.403.07l.398.918Zm.7-.035-.303.953c-.047-.015-.055-.03.01.017.074.052.17.13.35.276l.632-.774.633-.774c-.269-.22-.61-.52-1.017-.65l-.304.952Zm.69.472-.634.774c.306.25.581.476.816.64.226.157.538.347.922.398l.134-.99.133-.992c.103.014.115.054-.048-.059a13.06 13.06 0 0 1-.69-.545l-.634.774Zm1.238.821-.133.991a2 2 0 0 0 1.855-.769l-.795-.607-.795-.606-.132.991Zm.927-.385.796.607c.234-.308.32-.663.37-.934.05-.281.085-.636.124-1.03l-.995-.099-.995-.1a13.5 13.5 0 0 1-.103.875c-.035.194-.055.158.008.075l.795.606Zm.295-1.456.995.1c.023-.23.036-.353.051-.442.014-.079.019-.063-.004-.02l-.888-.458-.89-.459c-.195.38-.224.834-.259 1.18l.995.1Zm.154-.82.888.46-.368-.93-.368-.93a2 2 0 0 0-1.04.941l.888.459Zm.52-.47.368.93c-.046.018-.062.011.018.006.09-.006.214-.007.445-.007V1c-.205 0-.407 0-.58.011a2.002 2.002 0 0 0-.619.13l.368.93Zm.831-.07v1h1.264V1h-1.264v1ZM12 8V7a5 5 0 0 0-5 5h2a3 3 0 0 1 3-3V8Zm-4 4H7a5 5 0 0 0 5 5v-2a3 3 0 0 1-3-3H8Zm4 4v1a5 5 0 0 0 5-5h-2a3 3 0 0 1-3 3v1Zm4-4h1a5 5 0 0 0-5-5v2a3 3 0 0 1 3 3h1Z"/>
</svg>
